<svg xmlns="http://www.w3.org/2000/svg" width="552" height="608.768" viewBox="0 0 552 608.768">
  <g id="グループ_1" data-name="グループ 1" transform="translate(-542 -180)">
    <g id="合体_1" data-name="合体 1" transform="translate(542 180)" fill="#fff">
      <path d="M 276.4877624511719 600.3262329101562 L 248.4355163574219 548.3682861328125 L 247.4412689208984 546.5267333984375 L 245.3615112304688 546.2935791015625 C 228.6404266357422 544.418701171875 212.0346832275391 540.9706420898438 196.0055999755859 536.045166015625 C 180.3075103759766 531.2213134765625 164.9525146484375 524.9168701171875 150.3670196533203 517.3070678710938 C 135.9808502197266 509.8011474609375 122.1716842651367 500.9364929199219 109.3230972290039 490.9591369628906 C 96.54926300048828 481.0398864746094 84.58384704589844 469.9117431640625 73.75917816162109 457.8839111328125 C 62.90768051147461 445.8262329101562 53.08434677124023 432.7328186035156 44.56201553344727 418.9672241210938 C 35.94868087768555 405.0547180175781 28.56501388549805 390.2941589355469 22.61593055725098 375.0954895019531 C 16.55817985534668 359.619140625 11.91043090820312 343.4878845214844 8.801597595214844 327.149658203125 C 5.615514278411865 310.4050598144531 4.000014305114746 293.1959838867188 4.000014305114746 276.0003051757812 C 4.000014305114746 257.542724609375 5.859263896942139 239.0979766845703 9.526097297668457 221.1783905029297 C 13.09943103790283 203.7162322998047 18.43118095397949 186.5399017333984 25.3734302520752 170.1265563964844 C 32.19001388549805 154.0102233886719 40.62734603881836 138.4658203125 50.45093154907227 123.9248962402344 C 60.18184661865234 109.5211486816406 71.35734558105469 95.97639465332031 83.66684722900391 83.66681671142578 C 95.97643280029297 71.35731506347656 109.5211791992188 60.18181228637695 123.924934387207 50.45089721679688 C 138.4657592773438 40.62731552124023 154.0102691650391 32.18997955322266 170.1265106201172 25.37339782714844 C 186.5398406982422 18.4311466217041 203.7161865234375 13.09939670562744 221.1783447265625 9.526063919067383 C 239.0979309082031 5.859230518341064 257.5427551269531 3.999980449676514 276.0002746582031 3.999980449676514 C 294.4576721191406 3.999980449676514 312.90234375 5.859230518341064 330.8219299316406 9.526063919067383 C 348.283935546875 13.09939670562744 365.4601745605469 18.4311466217041 381.8735046386719 25.37339782714844 C 397.9897766113281 32.18997955322266 413.5341796875 40.62731552124023 428.0749206542969 50.45089721679688 C 442.4786682128906 60.18181228637695 456.0234375 71.35731506347656 468.3329162597656 83.66681671142578 C 480.6424255371094 95.97639465332031 491.8179321289062 109.5211486816406 501.5488586425781 123.9248962402344 C 511.3724365234375 138.4658203125 519.8096923828125 154.0102233886719 526.6262817382812 170.1265563964844 C 533.5685424804688 186.5399017333984 538.9002685546875 203.7162322998047 542.4735717773438 221.1783905029297 C 546.1404418945312 239.0979766845703 547.9996948242188 257.542724609375 547.9996948242188 276.0003051757812 C 547.9996948242188 293.1625671386719 546.3907470703125 310.3388061523438 543.2175903320312 327.0519714355469 C 540.1212768554688 343.3601379394531 535.4918212890625 359.4633178710938 529.4579467773438 374.9140625 C 523.5321044921875 390.087890625 516.1767578125 404.8268127441406 507.5960083007812 418.7214660644531 C 499.1061096191406 432.4690551757812 489.3191833496094 445.5491333007812 478.5070190429688 457.5983276367188 C 467.7221069335938 469.6170654296875 455.7991027832031 480.7418212890625 443.0692749023438 490.6636352539062 C 430.2660217285156 500.642578125 416.5035095214844 509.5158081054688 402.1640014648438 517.0367431640625 C 387.62744140625 524.6610717773438 372.3212585449219 530.9874877929688 356.6707763671875 535.8403930664062 C 340.6922607421875 540.7949829101562 324.1358337402344 544.2804565429688 307.4613342285156 546.2000732421875 L 305.3825073242188 546.4393920898438 L 304.3936767578125 548.2835693359375 L 276.4877624511719 600.3262329101562 Z" stroke="none"/>
      <path d="M 276.4756469726562 591.8842163085938 L 300.8684387207031 546.393310546875 L 302.84619140625 542.7049560546875 L 307.0039367675781 542.226318359375 C 442.1136779785156 526.6724243164062 543.9996948242188 412.2201538085938 543.9996948242188 276.0003051757812 C 543.9996948242188 128.2243957519531 423.7756958007812 7.999980449676514 276.0002746582031 7.999980449676514 C 128.2244262695312 7.999980449676514 8.000014305114746 128.2243957519531 8.000014305114746 276.0003051757812 C 8.000014305114746 412.6253967285156 110.2348480224609 527.1173095703125 245.8071746826172 542.3184814453125 L 249.9667663574219 542.784912109375 L 251.9552612304688 546.4679565429688 L 276.4756469726562 591.8842163085938 M 276.4998474121094 608.7681274414062 L 244.915771484375 550.2686767578125 C 107.1238479614258 534.8186645507812 1.407877607562114e-05 417.9175720214844 1.407877607562114e-05 276.0003051757812 C 1.407877607562114e-05 123.5690612792969 123.5690994262695 -1.961262933036778e-05 276.0002746582031 -1.961262933036778e-05 C 428.4306030273438 -1.961262933036778e-05 551.9996948242188 123.5690612792969 551.9996948242188 276.0003051757812 C 551.9996948242188 417.6383972167969 445.3184204101562 534.3563232421875 307.9188537597656 550.173828125 L 276.4998474121094 608.7681274414062 Z" stroke="none" fill="#707070"/>
    </g>
    <text id="気をつけて_" data-name="気をつけて！" transform="translate(596 501)" fill="#707070" font-size="80" font-family="HiraKakuProN-W6, Hiragino Kaku Gothic ProN"><tspan x="0" y="0">気をつけて！</tspan></text>
  </g>
</svg>
