<svg xmlns="http://www.w3.org/2000/svg" width="605.558" height="674.46" viewBox="0 0 605.558 674.46">
  <g id="undraw_cancel_u1it" transform="translate(-155.365 -2.992)">
    <path id="パス_5" data-name="パス 5" d="M584.1,717.72Z" transform="translate(-59.976 -75.999)" fill="#3f3d56"/>
    <ellipse id="楕円形_1" data-name="楕円形 1" cx="225.044" cy="17.407" rx="225.044" ry="17.407" transform="translate(310.834 624.367)" opacity="0.1"/>
    <path id="パス_8" data-name="パス 8" d="M417.574,368.965s65.883,1.22,53.683,12.811-57.953,0-57.953,0Z" transform="translate(-59.976 -75.999)" fill="#a0616a"/>
    <path id="パス_9" data-name="パス 9" d="M280.3,228.182s26.6-4.75,35.849,16.724S344.4,327.621,344.4,327.621s50.833,33.648,60.079,32.542,25.052,1.15,22.152,11.237-1.612,21.525-8.287,22.927-17.291-11.98-25.415-5.534-80.53-17.1-85.179-21.974-43.279-110.5-43.279-110.5S266.015,227.838,280.3,228.182Z" transform="translate(-59.976 -75.999)" fill="#009688"/>
    <path id="パス_10" data-name="パス 10" d="M277.379,605.607l3.05,25.621-25.621,6.711-14.641-6.711V608.657Z" fill="#a0616a"/>
    <path id="パス_11" data-name="パス 11" d="M208.445,622.078l3.05,25.621-25.621,6.711L171.233,647.7V625.128Z" fill="#a0616a"/>
    <path id="パス_12" data-name="パス 12" d="M339.795,401.6l11.591,42.092,17.081,85.4s4.88,20.741-4.88,45.752-27.451,106.756-23.791,111.636-41.482,8.54-40.872,3.66,6.71-71.984,6.71-71.984,8.54-59.173,12.811-66.493-19.521-25.621-19.521-25.621-6.1,70.154-15.251,76.254-7.93,100.655-12.2,101.875-35.382,6.1-39.042,0,0-107.976,0-107.976,20.741-77.474,16.471-88.455-1.83-57.953-1.83-57.953-15.861-35.992-7.32-54.9Z" transform="translate(-59.976 -75.999)" fill="#2f2e41"/>
    <path id="パス_13" data-name="パス 13" d="M337.965,167.349s-25.621,31.722-24.4,45.752S273.3,187.48,273.3,187.48s29.892-40.262,29.892-48.8S337.965,167.349,337.965,167.349Z" transform="translate(-59.976 -75.999)" fill="#a0616a"/>
    <circle id="楕円形_2" data-name="楕円形 2" cx="40.262" cy="40.262" r="40.262" transform="translate(237.422 22.722)" fill="#a0616a"/>
    <path id="パス_14" data-name="パス 14" d="M236.193,378.78c-1.824,6.8-4.087,14.5-3.764,20.991.207,4.2,11.365,6.96,26.793,8.766,14.305,1.678,32.283,2.532,48.626,2.971,17.16.464,32.5.464,39.878.464,21.961,0,4.27-14.031-4.27-20.741s-6.71-101.875-6.1-114.076-5.49-47.582-5.49-54.293-14.354-24.224-14.354-24.224-3.337,9.584-16.758-3.227-31.112-16.471-31.112-16.471c-13.421,4.88-35.992,58.563-37.212,67.714-.494,3.715-.085,22.742.744,44.465,1.2,31.752,3.3,69.287,4.746,73.271C239.06,367.531,237.8,372.8,236.193,378.78Z" transform="translate(-59.976 -75.999)" fill="#009688"/>
    <path id="パス_15" data-name="パス 15" d="M241.387,338.413l4.27,15.251-16.471,17.081-5.49-23.792Z" fill="#a0616a"/>
    <path id="パス_16" data-name="パス 16" d="M306.853,700.517s12.811,14.641,22.571,4.88,9.15-15.861,10.981-15.861,29.282,24.4,29.282,24.4,46.972,10.981,21.351,18.911-98.215,2.44-98.215,0-1.83-34.772,4.88-34.772Z" transform="translate(-59.976 -75.999)" fill="#2f2e41"/>
    <path id="パス_17" data-name="パス 17" d="M237.919,716.988s12.811,14.641,22.571,4.88,9.15-15.861,10.981-15.861,29.282,24.4,29.282,24.4,46.972,10.981,21.351,18.911-98.215,2.44-98.215,0-1.83-34.772,4.88-34.772Z" transform="translate(-59.976 -75.999)" fill="#2f2e41"/>
    <path id="パス_18" data-name="パス 18" d="M292.456,171.122c-1.3.84-2.994,1.692-4.3.854a194.657,194.657,0,0,1-10.8-37.4c-.822-4.5-1.393-9.492,1.1-13.319.985-1.509,2.4-2.744,3.124-4.4,1.093-2.5.373-5.4.736-8.1.76-5.667,6.118-9.62,11.505-11.537s11.238-2.512,16.373-5.027c4.876-2.389,8.781-6.35,13.3-9.356s10.313-5.062,15.348-3.03c4.454,1.8,7.229,6.337,11.439,8.649,2.857,1.569,6.173,2.005,9.362,2.679a59.922,59.922,0,0,1,24.34,11.308,17.673,17.673,0,0,1,4.43,4.566c5.4,8.9-4.271,20.989,0,30.481l-9.227-7.281a32.13,32.13,0,0,0-8.24-5.237c-3.056-1.158-6.676-1.3-9.452.427-3.9,2.42-4.953,7.476-6.314,11.856s-4.371,9.237-8.956,9.125c-6.235-.153-8.416-8.855-14.012-11.61-3.648-1.8-8.24-.613-11.35,2.006s-4.976,6.42-6.344,10.248c-.855,2.393-1.658,5.09-3.177,7.163-1.675,2.287-3.818,2.471-5.608,4.179C301.082,162.812,298.218,167.4,292.456,171.122Z" transform="translate(-59.976 -75.999)" fill="#2f2e41"/>
    <path id="パス_19" data-name="パス 19" d="M236.193,378.78c7.583,11,16.129,22.345,23.029,29.757,14.305,1.678,32.283,2.532,48.626,2.971a38.528,38.528,0,0,0-10.755-9.907c-7.93-4.88-26.841-62.833-26.841-62.833s23.181-59.783,29.282-82.354-17.691-35.382-17.691-35.382c-10.981-9.15-29.892,12.2-29.892,12.2s-9.651,29.111-18.777,57.886c1.2,31.752,3.3,69.287,4.746,73.271C239.06,367.531,237.8,372.8,236.193,378.78Z" transform="translate(-59.976 -75.999)" opacity="0.1"/>
    <path id="パス_20" data-name="パス 20" d="M280.011,216.152S303.8,228.962,297.7,251.533s-29.282,82.354-29.282,82.354,18.911,57.953,26.841,62.833,18.911,16.471,10.371,22.571-14.641,15.861-20.741,12.811-6.1-20.131-16.471-20.131-52.463-63.443-53.073-70.154S250.12,228.352,250.12,228.352,269.031,207,280.011,216.152Z" transform="translate(-59.976 -75.999)" fill="#009688"/>
    <path id="パス_21" data-name="パス 21" d="M774.721,382.891l-6.863-6.863a21.345,21.345,0,0,0-30.186,0L604.557,509.143,471.442,376.028a21.345,21.345,0,0,0-30.186,0l-6.863,6.863a21.345,21.345,0,0,0,0,30.186L567.508,546.192,434.393,679.307a21.345,21.345,0,0,0,0,30.186l6.863,6.863a21.345,21.345,0,0,0,30.186,0L604.557,583.241,737.673,716.356a21.345,21.345,0,0,0,30.186,0l6.863-6.863a21.345,21.345,0,0,0,0-30.186L641.606,546.192,774.721,413.077a21.345,21.345,0,0,0,0-30.186Z" transform="translate(-59.976 -75.999)" fill="#ff6584"/>
    <path id="パス_22" data-name="パス 22" d="M429.643,686.545,558.805,557.382l-1.243-1.243L434.393,679.307a21.259,21.259,0,0,0-4.75,7.237Z" transform="translate(-59.976 -75.999)" opacity="0.1"/>
    <path id="パス_23" data-name="パス 23" d="M432.553,387.218a21.345,21.345,0,0,1,30.186,0L595.854,520.333,728.969,387.218a21.345,21.345,0,0,1,30.186,0l6.863,6.863a21.344,21.344,0,0,1,4.75,22.949l3.953-3.953a21.345,21.345,0,0,0,0-30.186l-6.863-6.863a21.345,21.345,0,0,0-30.186,0L604.557,509.143,471.442,376.028a21.345,21.345,0,0,0-30.186,0l-6.863,6.863a21.259,21.259,0,0,0-4.75,7.237Z" transform="translate(-59.976 -75.999)" opacity="0.1"/>
    <path id="パス_24" data-name="パス 24" d="M642.85,547.436l-9.947,9.947L766.018,690.5a21.344,21.344,0,0,1,4.75,22.949l3.953-3.953a21.345,21.345,0,0,0,0-30.186Z" transform="translate(-59.976 -75.999)" opacity="0.1"/>
  </g>
</svg>
